# xmcd
#
# Track frame offsets:
#	150
#	24222
#	46690
#	65162
#	75406
#	103068
#	124656
#
# Disc length: 2038 seconds
#
# Revision: 0
# Processed by: cddbd v1.5.2PL0 Copyright (c) Steve Scherf et al.
# Submitted via: dBpowerAMP V4.0
#
DISCID=4d07f407
DTITLE=Red White 'n Blue - Red White 'n Blue
DYEAR=1975
DGENRE=Blues
TTITLE0=Happyvile
TTITLE1=Perfection
TTITLE2=Masters of Planning
TTITLE3=Pigeon girl
TTITLE4=Bird
TTITLE5=Country life
TTITLE6=Freewheeler
EXTD=
EXTT0=
EXTT1=
EXTT2=
EXTT3=
EXTT4=
EXTT5=
EXTT6=
PLAYORDER=
